<svg xmlns="http://www.w3.org/2000/svg" viewBox="0 0 800 600" width="100%" height="100%">
    <defs>
        <linearGradient id="portalGrad" x1="0%" y1="0%" x2="0%" y2="100%">
            <stop offset="0%" stop-color="#f0d0dc" />
            <stop offset="100%" stop-color="#9a5878" />
        </linearGradient>
        <linearGradient id="beamGrad" x1="0%" y1="0%" x2="0%" y2="100%">
            <stop offset="0%" stop-color="#f0d0dc" stop-opacity="0.15" />
            <stop offset="100%" stop-color="#f0d0dc" stop-opacity="0" />
        </linearGradient>
    </defs>

    <g transform="translate(0, -30)">
        <polygon points="370,280 430,280 500,420 300,420" fill="url(#beamGrad)" />
        <line x1="260" y1="280" x2="540" y2="280" stroke="url(#portalGrad)" stroke-width="2" opacity="0.8" stroke-linecap="round"/>
        <path d="M 310 280 V 150 A 90 90 0 0 1 490 150 V 280" fill="none" stroke="url(#portalGrad)" stroke-width="3" opacity="0.9" />
        <path d="M 340 280 V 150 A 60 60 0 0 1 460 150 V 280 Z" fill="url(#portalGrad)" opacity="0.35" />
        <path d="M 370 280 V 150 A 30 30 0 0 1 430 150 V 280 Z" fill="#f0d0dc" />
        <line x1="400" y1="120" x2="400" y2="280" stroke="#0d0b10" stroke-width="3" />
    </g>

    <text x="400" y="460"
          font-family="'Outfit', sans-serif"
          font-size="34"
          font-weight="300"
          letter-spacing="14"
          fill="#f0d0dc"
          text-anchor="middle"
          style="text-transform: uppercase;">VIORA</text>
</svg>
